<?xml version="1.0" encoding="utf-8"?>
<!-- Generator: Adobe Illustrator 18.1.1, SVG Export Plug-In . SVG Version: 6.00 Build 0)  -->
<!DOCTYPE svg PUBLIC "-//W3C//DTD SVG 1.1//EN" "http://www.w3.org/Graphics/SVG/1.1/DTD/svg11.dtd">
<svg version="1.1" id="Layer_1" xmlns="http://www.w3.org/2000/svg" xmlns:xlink="http://www.w3.org/1999/xlink" x="0px" y="0px"
	 width="32px" height="32px" viewBox="0 0 32 32" enable-background="new 0 0 32 32" xml:space="preserve">
<g>
	<path d="M18.75,25.003c0,0,0.031,0.884-1.032,1.712c-0.776,0.604-0.964,0.849-0.969,0.855c-0.005-0.006-0.193-0.25-0.969-0.855
		c-1.062-0.827-1.032-1.712-1.032-1.712c-0.614,0.471-1,1.082-1,1.712c0,0.469,0,1.287,1,2.156c1.055,0.917,1.828,1.272,2,2.129
		c0.401-0.152,1.002-0.521,0.842-1.34c-0.186-0.95-0.061-1.19,0.473-1.19c0.153,0,0.584,0.152,0.351,0.665
		c-0.112,0.246,0.03,0.513,0.178,0.647C18.813,28.625,21.438,27.143,18.75,25.003z"/>
	<g>
		<rect x="6.5" y="5.75" width="1" height="1.25"/>
		<g>
			<rect x="26" y="5.75" width="1" height="1"/>
			<path d="M28.5,5.75v2H26v0.518l1.225,0.984c-0.115,1.62-1.306,2.97-2.796,3.497c-0.298-0.731-1.014-1.249-1.851-1.249
				c-0.7,0-1.315,0.363-1.672,0.908c-0.795-1.17-1.899-1.997-3.156-2.289V9.801c1.724-0.667,3-2.938,3-4.801c0-2.209-1.791-4-4-4
				c-2.209,0-4,1.791-4,4c0,1.863,1.276,4.134,3,4.801v0.319c-1.257,0.291-2.361,1.119-3.156,2.289
				c-0.358-0.546-0.972-0.908-1.672-0.908c-0.837,0-1.553,0.518-1.851,1.249C7.58,12.221,6.39,10.871,6.275,9.251L7.5,8.268V7.75H5
				v-2H4v2.518l1.278,1.019c0.134,2.114,1.698,3.864,3.669,4.468c0.127,0.982,0.959,1.746,1.974,1.746
				c0.169,0,0.33-0.027,0.487-0.067c-0.074,0.447-0.113,0.91-0.113,1.385c0,1.56,0.423,3.227,1.128,4.649
				C12.589,21.801,12.941,22,13.313,22h1.437l-0.5,1h-0.5v1h6v-1h-0.5l-0.5-1h1.437c0.372,0,0.724-0.199,0.889-0.533
				c0.706-1.422,1.128-3.089,1.128-4.649c0-0.475-0.039-0.938-0.113-1.385c0.157,0.04,0.318,0.067,0.487,0.067
				c1.016,0,1.848-0.764,1.974-1.746c1.971-0.604,3.536-2.354,3.669-4.468L29.5,8.268V5.75H28.5z M10.215,14.207
				c-0.391-0.391-0.391-1.024,0-1.414c0.39-0.391,1.024-0.391,1.414,0L10.215,14.207z M15.25,19h-1v-1h1V19z M15.25,17h-1v-1h1V17z
				 M15.25,15h-1v-1h1V15z M14.09,3.639C14.586,2.669,15.587,2,16.75,2s2.164,0.669,2.66,1.639C19.494,3.804,19.367,4,19.182,4
				h-4.864C14.133,4,14.006,3.804,14.09,3.639z M18.75,5c0,0.276-0.224,0.5-0.5,0.5s-0.5-0.224-0.5-0.5c0-0.276,0.224-0.5,0.5-0.5
				S18.75,4.724,18.75,5z M15.75,5c0,0.276-0.224,0.5-0.5,0.5s-0.5-0.224-0.5-0.5c0-0.276,0.224-0.5,0.5-0.5S15.75,4.724,15.75,5z
				 M14.043,6.44C13.965,6.226,14.13,6,14.358,6h4.785c0.228,0,0.393,0.226,0.314,0.44C18.963,7.78,17.887,9,16.75,9
				S14.537,7.78,14.043,6.44z M17.25,19h-1v-1h1V19z M17.25,17h-1v-1h1V17z M17.25,15h-1v-1h1V15z M19.25,19h-1v-1h1V19z M19.25,17
				h-1v-1h1V17z M19.25,15h-1v-1h1V15z M21.871,14.207c-0.391-0.391-0.391-1.024,0-1.414c0.39-0.391,1.024-0.391,1.414,0
				L21.871,14.207z"/>
		</g>
	</g>
	<rect x="15.75" y="7" width="2" height="1"/>
</g>
</svg>
